<svg width="48" height="48" viewBox="0 0 48 48" fill="none" xmlns="http://www.w3.org/2000/svg">
<rect width="48" height="48" rx="24" fill="#13CE66"/>
<g clip-path="url(#clip0_144_3927)">
<path d="M25.251 12.099C26.3955 12.2295 27.501 12.5415 28.266 13.425C29.0235 14.2965 29.25 15.492 29.25 16.875C29.25 17.5755 29.1195 18.5535 29.0145 19.3305L28.992 19.5H31.125C32.0295 19.5 32.886 19.6275 33.627 19.9995C34.389 20.3805 34.9935 21.018 35.3325 21.7995C36.012 23.2965 35.9895 25.47 35.6145 28.2735L35.5545 28.7325C35.397 29.9175 35.262 30.942 35.085 31.782C34.8885 32.727 34.6125 33.5955 34.083 34.29C32.955 35.7705 31.059 36 28.5 36C25.728 36 23.649 35.5005 21.918 35.0205C21.6705 34.953 21.4335 34.8855 21.2055 34.821C20.2185 34.542 19.4055 34.311 18.618 34.1985C18.4448 34.7228 18.1106 35.1792 17.663 35.5026C17.2154 35.8261 16.6772 36.0001 16.125 36H14.625C13.9288 36 13.2611 35.7234 12.7688 35.2312C12.2766 34.7389 12 34.0712 12 33.375V22.125C12 20.676 13.176 19.5 14.625 19.5H16.125C16.585 19.5 17.0368 19.6208 17.4354 19.8503C17.834 20.0799 18.1652 20.4101 18.396 20.808C18.783 20.6505 19.281 20.406 19.773 20.046C20.7795 19.311 21.75 18.1185 21.75 16.125V15.375C21.75 13.572 23.241 11.8695 25.251 12.099ZM18.75 31.95C19.8075 32.082 20.835 32.376 21.858 32.667L22.5195 32.8545C24.1635 33.312 26.0205 33.7515 28.5 33.7515C31.191 33.7515 31.92 33.417 32.292 32.928C32.5125 32.6385 32.706 32.1705 32.883 31.323C33.0405 30.57 33.165 29.637 33.3255 28.428L33.3855 27.978C33.7605 25.155 33.669 23.5785 33.2835 22.7325C33.1578 22.4196 32.922 22.1636 32.6205 22.0125C32.3085 21.8565 31.8405 21.7515 31.125 21.7515H28.5C27.471 21.7515 26.5575 20.886 26.691 19.7475C26.7255 19.4595 26.766 19.1625 26.805 18.8685C26.9025 18.1365 27 17.4135 27 16.8765C27 15.663 26.784 15.1515 26.568 14.9025C26.3625 14.6655 25.965 14.4465 24.996 14.3355C24.5355 14.2815 24 14.6895 24 15.375V16.125C24 19.008 22.533 20.817 21.1005 21.8625C20.3831 22.3844 19.5906 22.794 18.75 23.0775V31.95ZM16.125 21.75H14.625C14.5255 21.75 14.4302 21.7895 14.3598 21.8598C14.2895 21.9302 14.25 22.0255 14.25 22.125V33.375C14.25 33.582 14.418 33.75 14.625 33.75H16.125C16.2245 33.75 16.3198 33.7105 16.3902 33.6402C16.4605 33.5698 16.5 33.4745 16.5 33.375V22.125C16.5 22.0255 16.4605 21.9302 16.3902 21.8598C16.3198 21.7895 16.2245 21.75 16.125 21.75Z" fill="white"/>
</g>
<defs>
<clipPath id="clip0_144_3927">
<rect width="24" height="24" fill="white" transform="translate(12 12)"/>
</clipPath>
</defs>
</svg>
